<?xml version="1.0" encoding="UTF-8" standalone="no"?>
<!-- Created with Inkscape (http://www.inkscape.org/) -->

<svg
   width="1200"
   height="1200"
   viewBox="0 0 317.49999 317.5"
   version="1.1"
   id="svg1"
   xml:space="preserve"
   sodipodi:docname="liever-via-signal.svg"
   inkscape:version="1.4 (e7c3feb, 2024-10-09)"
   xmlns:inkscape="http://www.inkscape.org/namespaces/inkscape"
   xmlns:sodipodi="http://sodipodi.sourceforge.net/DTD/sodipodi-0.dtd"
   xmlns:xlink="http://www.w3.org/1999/xlink"
   xmlns="http://www.w3.org/2000/svg"
   xmlns:svg="http://www.w3.org/2000/svg"><sodipodi:namedview
     id="namedview1"
     pagecolor="#ffffff"
     bordercolor="#000000"
     borderopacity="0.25"
     inkscape:showpageshadow="2"
     inkscape:pageopacity="0.0"
     inkscape:pagecheckerboard="0"
     inkscape:deskcolor="#d1d1d1"
     inkscape:document-units="mm"
     inkscape:zoom="0.64346717"
     inkscape:cx="51.284668"
     inkscape:cy="480.21098"
     inkscape:window-width="2560"
     inkscape:window-height="1300"
     inkscape:window-x="0"
     inkscape:window-y="0"
     inkscape:window-maximized="1"
     inkscape:current-layer="layer1" /><defs
     id="defs1"><linearGradient
       id="linearGradient5"
       inkscape:collect="always"><stop
         style="stop-color:#ffffff;stop-opacity:0;"
         offset="0"
         id="stop5" /><stop
         style="stop-color:#ffffff;stop-opacity:0.65635556;"
         offset="1"
         id="stop6" /></linearGradient><radialGradient
       inkscape:collect="always"
       xlink:href="#linearGradient5"
       id="radialGradient6"
       cx="164.06982"
       cy="111.1257"
       fx="164.06982"
       fy="111.1257"
       r="85.46744"
       gradientTransform="matrix(1,0,0,0.99981677,-5.3453905,2.8986483)"
       gradientUnits="userSpaceOnUse" /></defs><g
     inkscape:label="Layer 1"
     inkscape:groupmode="layer"
     id="layer1"><path
       d="m 158.6384,28.552211 c -31.08493,0.0163 -59.707551,16.916621 -74.735284,44.127646 -15.02774,27.211026 -14.0884,60.437403 2.45266,86.755963 l -8.21526,35.04176 35.041774,-8.21526 c 48.11839,30.31028 111.86438,6.02261 127.61492,-48.6215 C 256.54775,82.996711 215.50874,28.505971 158.63967,28.554821 Z"
       style="fill:url(#radialGradient6);stroke-width:1.30899"
       id="path1-1-2"
       sodipodi:nodetypes="cscccscc" /><path
       id="rect4"
       style="fill:#286bee;fill-opacity:1;stroke-width:0.794697"
       d="M -1.9037598 -1.0877889 L -1.9037598 319.03014 L 319.30196 319.03014 L 319.30196 -1.0877889 L -1.9037598 -1.0877889 z M 158.26217 33.981388 L 158.26372 33.983455 C 211.6957 33.937558 250.254 85.134956 235.4554 136.47642 C 220.6568 187.8179 160.76385 210.63778 115.55367 182.15942 L 82.629582 189.87833 L 90.34849 156.95424 C 74.80715 132.22635 73.924758 101.00833 88.044238 75.441907 C 102.16372 49.875481 129.05598 33.996708 158.26217 33.981388 z " /><g
       id="g4"
       transform="translate(36.505615,5.2010014)"
       style="display:inline"><path
         d="m 73.830515,269.75745 q -0.196534,-1.98109 -1.702618,-3.07797 -1.489959,-1.09688 -4.027553,-1.09688 -2.603387,0 -3.994861,1.06419 -1.391899,1.06418 -1.391899,2.68489 -0.03268,1.8011 1.539196,2.73414 1.588012,0.91689 3.765213,1.42459 l 3.013016,0.72034 q 2.914122,0.655 5.17368,1.89917 2.275249,1.24417 3.569091,3.20913 1.309547,1.94841 1.309547,4.74792 -0.01622,4.6006 -3.45449,7.33473 -3.421375,2.71756 -9.561602,2.71756 -6.106694,0 -9.74159,-2.78336 -3.63447,-2.78295 -3.765214,-8.21894 h 6.859737 q 0.179982,2.52145 1.981087,3.79831 1.817237,1.26074 4.584479,1.26074 2.701026,0 4.305584,-1.14612 1.6207,-1.14612 1.637256,-2.97992 -0.01604,-1.7022 -1.489959,-2.61909 -1.473818,-0.91689 -4.207528,-1.57188 l -3.651026,-0.91689 q -4.240643,-1.01495 -6.696308,-3.22527 -2.456091,-2.21031 -2.439538,-5.91058 -0.01655,-3.04527 1.620699,-5.32096 1.653808,-2.29224 4.535236,-3.55298 2.881853,-1.27685 6.54901,-1.27685 3.732948,0 6.516332,1.27685 2.799924,1.27729 4.355248,3.55298 1.555313,2.27569 1.604571,5.27173 z m 11.869134,23.88724 v -25.14797 h 6.974754 v 25.14797 z m 3.503723,-28.38979 q -1.5392,0 -2.652204,-1.03151 -1.113434,-1.04763 -1.113434,-2.50491 0,-1.45726 1.113434,-2.48878 1.113004,-1.03151 2.652204,-1.03151 1.555324,0 2.668758,1.03151 1.113004,1.03152 1.113004,2.48878 0,1.45728 -1.113004,2.50491 -1.113434,1.03151 -2.668758,1.03151 z m 20.369508,38.34448 q -5.07561,0 -7.97318,-2.03033 -2.897978,-2.01377 -3.520287,-4.97713 l 6.450537,-0.86766 q 0.42577,1.14613 1.65381,1.99765 1.24418,0.86765 3.55297,0.86765 2.27527,0 3.74908,-1.11343 1.48996,-1.09689 1.48996,-3.68372 v -4.6006 h -0.2946 q -0.68768,1.55532 -2.42341,2.83219 -1.73531,1.26073 -4.7479,1.26073 -2.83218,0 -5.15712,-1.32612 -2.30836,-1.32607 -3.683697,-4.04367 -1.358794,-2.71798 -1.358794,-6.89284 0,-4.28947 1.391473,-7.13819 1.408038,-2.84918 3.716408,-4.27333 2.32491,-1.44115 5.0756,-1.44115 2.11226,0 3.53642,0.72079 1.42459,0.70381 2.3088,1.75144 0.8842,1.04805 1.34222,2.07956 h 0.26234 v -4.22409 h 6.92554 v 25.39292 q 0,3.20913 -1.58843,5.37064 -1.57147,2.16107 -4.3383,3.24181 -2.76722,1.09688 -6.36944,1.09688 z m 0.14727,-15.5537 q 2.52148,0 3.89682,-1.86647 1.39147,-1.86648 1.39147,-5.19022 0,-3.30719 -1.37534,-5.28828 -1.37535,-1.98109 -3.91295,-1.98109 -2.58683,0 -3.94561,2.03032 -1.34267,2.02992 -1.34267,5.23905 0,3.25796 1.35922,5.15711 1.35838,1.89916 3.92906,1.89916 z m 24.68955,-8.9393 v 14.53873 h -6.97477 v -25.14798 h 6.64706 v 4.43677 h 0.2946 q 0.85153,-2.19376 2.79994,-3.47105 1.96452,-1.29342 4.76445,-1.29342 3.92906,0 6.30324,2.53759 2.37373,2.52147 2.37373,6.92597 v 16.0117 h -6.97435 v -14.76796 q 0.0162,-2.30837 -1.17923,-3.60178 -1.19493,-1.30954 -3.29063,-1.30954 -2.11226,0 -3.43835,1.35835 -1.30955,1.34308 -1.32611,3.7822 z m 28.86098,15.01332 q -3.60179,0 -5.97594,-1.88302 -2.37418,-1.88262 -2.37418,-5.61558 0,-2.81604 1.32654,-4.42063 1.32611,-1.60456 3.47062,-2.34104 2.16149,-0.75305 4.64985,-0.98227 3.2745,-0.32771 4.68254,-0.68768 1.40802,-0.36039 1.40802,-1.57187 v -0.098 q 0,-1.55532 -0.98227,-2.40684 -0.96571,-0.85154 -2.75068,-0.85154 -1.8826,0 -2.99605,0.81884 -1.113,0.81841 -1.47341,2.07915 l -6.45051,-0.52381 q 0.72035,-3.43837 3.56909,-5.45213 2.86531,-2.0138 7.38399,-2.0138 2.79993,0 5.23904,0.88423 2.43954,0.88421 3.92948,2.76682 1.50609,1.86647 1.50609,4.86251 v 16.96172 h -6.61438 v -3.48717 h -0.19653 q -0.9169,1.75185 -2.75069,2.86529 -1.81682,1.09688 -4.60018,1.09688 z m 1.99723,-4.81328 q 2.29224,0 3.76564,-1.3261 1.47382,-1.34267 1.47382,-3.32375 v -2.66875 q -0.40921,0.27845 -1.27729,0.49154 -0.8511,0.21268 -1.83379,0.37653 -0.96571,0.14729 -1.73531,0.26191 -1.8338,0.26191 -2.96293,1.0315 -1.11386,0.76961 -1.11386,2.243 0,1.44072 1.03151,2.17764 1.04806,0.73648 2.65263,0.73648 z m 24.55879,-29.19208 v 33.53035 h -6.97478 v -33.53035 z"
         fill="#1b1b1b"
         id="path2"
         style="stroke-width:0.424488" /><path
         d="m 96.960125,7.0099503 2.365331,9.5608887 c -9.305673,2.288768 -18.211581,5.972057 -26.415468,10.92486 L 67.849403,19.052691 C 76.890372,13.593828 86.704924,9.5336713 96.960125,7.0099503 Z m 50.466885,0 -2.36534,9.5608887 c 9.30567,2.288768 18.21158,5.972057 26.41547,10.92486 l 5.09333,-8.443008 C 167.51935,13.590795 157.69354,9.5305491 147.42701,7.0099503 Z M 32.166254,54.734532 C 26.70739,63.775495 22.647229,73.59004 20.123503,83.845234 l 9.562197,2.365351 c 2.288762,-9.305679 5.972046,-18.211593 10.924846,-26.415487 z m -5.25693,54.344188 c -0.0031,-4.77871 0.354001,-9.550852 1.06815,-14.275897 l -9.742831,-1.479174 c -1.577114,10.444161 -1.577114,21.065941 0,31.510101 l 9.742831,-1.47918 c -0.714146,-4.72503 -1.071207,-9.49716 -1.06815,-14.27585 z m 149.631016,90.02602 -5.06057,-8.44304 c -8.19423,4.94944 -17.08934,8.63219 -26.38407,10.92354 l 2.3667,9.56091 c 10.24378,-2.52643 20.04706,-6.58605 29.07794,-12.04141 z m 40.93876,-90.02602 c 0.003,4.77869 -0.354,9.55082 -1.06815,14.27585 l 9.74154,1.47918 c 1.57711,-10.44416 1.57711,-21.06594 0,-31.510101 l -9.74154,1.479174 c 0.71415,4.725045 1.07121,9.497187 1.06815,14.275897 z m 6.78453,25.23345 -9.56091,-2.36534 c -2.28876,9.30567 -5.97205,18.21158 -10.92485,26.41547 l 8.44299,5.09326 c 5.4619,-9.0511 9.52216,-18.87688 12.04277,-29.14339 z m -87.79289,68.99833 c -9.46399,1.42384 -19.08775,1.42384 -28.55174,0 l -1.47916,9.74153 c 10.44416,1.57711 21.06592,1.57711 31.51008,0 z m 62.42719,-37.70292 c -5.68287,7.69686 -12.48862,14.49733 -20.18989,20.17423 l 5.84858,7.93509 c 8.49568,-6.24655 16.00493,-13.73374 22.27645,-22.211 z M 178.70804,32.378239 c 7.70242,5.681668 14.50823,12.487483 20.18989,20.189911 l 7.93514,-5.914036 C 200.58146,38.181665 193.09453,30.69473 184.62208,24.443124 Z M 45.491781,52.56815 C 51.173455,44.865718 57.97928,38.059903 65.68172,32.378239 l -5.914037,-7.935115 c -8.471995,6.251705 -15.958495,13.738635 -22.209712,22.21099 z m 166.726479,2.169006 -8.44301,5.059263 c 4.94944,8.194225 8.63221,17.089336 10.92356,26.384066 l 9.5622,-2.365351 C 221.73417,73.571267 217.6741,63.76797 212.21826,54.737156 Z M 107.91637,14.865222 c 9.464,-1.423839 19.08776,-1.423839 28.55176,0 l 1.47916,-9.7415288 c -10.44374,-1.5769818 -21.06505,-1.5769818 -31.50879,0 z m -57.367933,181.465718 -20.354844,4.74903 4.747696,-20.35484 -9.594885,-2.25145 -4.746411,20.35484 c -1.667849,7.11978 4.72527,13.5129 11.84505,11.84505 l 20.33783,-4.66521 z m -23.148232,-26.64454 9.594903,2.23315 3.28559,-14.11096 c -4.789206,-8.04939 -8.36003,-16.76362 -10.596284,-25.85914 l -9.562233,2.36534 c 2.143123,8.71109 5.400586,17.10946 9.691809,24.98737 z m 45.999323,21.35625 -14.110961,3.28554 2.233151,9.59495 10.382962,-2.4164 c 7.877845,4.29167 16.276221,7.54957 24.987372,9.6931 l 2.365331,-9.56092 c -9.076049,-2.26299 -17.767538,-5.85577 -25.792406,-10.66173 z"
         fill="#3a76f0"
         id="path1"
         style="fill:#ffffff;fill-opacity:1;stroke-width:1.30899"
         sodipodi:nodetypes="cccccccccccccccccccccccccccccccccccccccccccccccccccccccccccccccccccccccccccccccccccccccccc" /><text
         xml:space="preserve"
         style="font-size:39.6076px;text-align:start;writing-mode:lr-tb;direction:ltr;text-anchor:start;fill:#ffffff;fill-opacity:1;stroke-width:3.30063"
         x="26.977114"
         y="254.36026"
         id="text3"><tspan
           sodipodi:role="line"
           id="tspan3"
           style="font-style:normal;font-variant:normal;font-weight:bold;font-stretch:normal;font-family:sans-serif;-inkscape-font-specification:'sans-serif Bold';stroke-width:3.30063"
           x="26.977114"
           y="254.36026">Liever via</tspan></text><path
         d="m 122.74086,27.764817 c -29.206188,0.01532 -56.098898,15.894202 -70.218368,41.460623 -14.11948,25.56642 -13.23691,56.78461 2.30443,81.5125 l -7.71874,32.92388 32.92389,-7.71873 C 125.24225,204.42145 185.1355,181.6017 199.9341,130.26022 214.7327,78.91876 176.17404,27.721372 122.74206,27.767269 Z"
         style="fill:none;fill-opacity:1;stroke:#ffffff;stroke-width:8.55846;stroke-dasharray:none;stroke-opacity:1;paint-order:markers fill stroke"
         id="path1-1-22"
         sodipodi:nodetypes="cscccscc" /></g></g></svg>
